<?xml version="1.0" encoding="UTF-8"?>
<svg width="41px" height="40px" viewBox="0 0 41 40" version="1.1" xmlns="http://www.w3.org/2000/svg" xmlns:xlink="http://www.w3.org/1999/xlink">
    <title>Group 8</title>
    <defs>
        <filter id="filter-1">
            <feColorMatrix in="SourceGraphic" type="matrix" values="0 0 0 0 0.000000 0 0 0 0 0.000000 0 0 0 0 0.000000 0 0 0 1.000000 0"></feColorMatrix>
        </filter>
    </defs>
    <g id="Banking" stroke="none" stroke-width="1" fill="none" fill-rule="evenodd" stroke-linecap="round" stroke-linejoin="round">
        <g id="Portal_banking" transform="translate(-126.000000, -206.000000)">
            <g id="Left-menu" transform="translate(0.000000, 132.000000)">
                <g id="Group-8" transform="translate(102.000000, 75.000000)" filter="url(#filter-1)">
                    <g transform="translate(25.000000, 0.000000)">
                        <path d="M13.65,15.9354839 L3.4125,15.9354839 C1.5288,15.9354839 0,14.5076645 0,12.7483871 L0,3.18709677 C0,1.42781935 1.5288,2.04281037e-14 3.4125,2.04281037e-14 L13.65,2.04281037e-14 C15.5337,2.04281037e-14 17.0625,1.42781935 17.0625,3.18709677 L17.0625,12.7483871 C17.0625,14.5076645 15.5337,15.9354839 13.65,15.9354839 Z" id="Stroke-1" stroke="#8A94A4"></path>
                        <path d="M13.65,38 L3.4125,38 C1.5288,38 0,36.5721806 0,34.8129032 L0,25.2516129 C0,23.4923355 1.5288,22.0645161 3.4125,22.0645161 L13.65,22.0645161 C15.5337,22.0645161 17.0625,23.4923355 17.0625,25.2516129 L17.0625,34.8129032 C17.0625,36.5721806 15.5337,38 13.65,38 Z" id="Stroke-1" stroke="#8A94A4"></path>
                        <path d="M35.5875,15.9354839 L25.35,15.9354839 C23.4663,15.9354839 21.9375,14.5076645 21.9375,12.7483871 L21.9375,3.18709677 C21.9375,1.42781935 23.4663,2.04281037e-14 25.35,2.04281037e-14 L35.5875,2.04281037e-14 C37.4712,2.04281037e-14 39,1.42781935 39,3.18709677 L39,12.7483871 C39,14.5076645 37.4712,15.9354839 35.5875,15.9354839 Z" id="Stroke-1" stroke="#8A94A4"></path>
                        <path d="M35.5875,38 L25.35,38 C23.4663,38 21.9375,36.5721806 21.9375,34.8129032 L21.9375,25.2516129 C21.9375,23.4923355 23.4663,22.0645161 25.35,22.0645161 L35.5875,22.0645161 C37.4712,22.0645161 39,23.4923355 39,25.2516129 L39,34.8129032 C39,36.5721806 37.4712,38 35.5875,38 Z" id="Stroke-1" stroke="#8A94A4"></path>
                    </g>
                </g>
            </g>
        </g>
    </g>
</svg>