<?xml version="1.0" encoding="UTF-8"?>
<svg width="38px" height="45px" viewBox="0 0 38 45" version="1.1" xmlns="http://www.w3.org/2000/svg" xmlns:xlink="http://www.w3.org/1999/xlink">
    <title>Group 9</title>
    <defs>
        <filter id="filter-1">
            <feColorMatrix in="SourceGraphic" type="matrix" values="0 0 0 0 0.000000 0 0 0 0 0.000000 0 0 0 0 0.000000 0 0 0 1.000000 0"></feColorMatrix>
        </filter>
    </defs>
    <g id="Banking" stroke="none" stroke-width="1" fill="none" fill-rule="evenodd" stroke-linecap="round" stroke-linejoin="round">
        <g id="Portal_banking" transform="translate(-130.000000, -487.000000)">
            <g id="Left-menu" transform="translate(0.000000, 132.000000)">
                <g id="Group-9" transform="translate(112.000000, 356.000000)" filter="url(#filter-1)">
                    <g transform="translate(19.000000, 0.000000)">
                        <path d="M34.3349396,7.48215182 C33.6225493,7.68244294 32.7258565,7.7825885 31.644861,7.7825885 C28.2165159,7.7825885 23.2514357,6.52331134 19.0681893,0.522568057 C18.5818206,-0.174189352 17.4181794,-0.174189352 16.9318107,0.522568057 C11.8811803,7.76660782 4.76071028,8.52808696 1.66981319,7.48374988 C0.842827909,7.23844653 0,7.85450153 0,8.72624733 L0,20.9274923 C0,37.9580972 17.4807578,42.904915 17.656611,42.9544551 C17.7683015,42.9848184 17.8839527,43 17.9988118,43 C18.114463,43 18.2293221,42.9848184 18.3418047,42.9544551 C18.5192422,42.904915 36,37.9580972 36,20.9274923 L36,8.72624733 C36,8.1631949 35.4449799,7.74849639 34.3349396,7.48215182 Z" id="Stroke-1" stroke="#8A94A4"></path>
                        <g id="Group-3" transform="translate(11.172414, 12.285714)" stroke="#8A94A4">
                            <path d="M1.70370012,7.37142857 C0.764747191,7.37142857 0,8.09804082 0,9.02605102 L0.753559667,16.7715796 C0.753559667,17.7011694 1.51830686,18.4285714 2.45725978,18.4285714 L11.1971135,18.4285714 C12.1360664,18.4285714 12.9008136,17.6861633 12.9008136,16.7565735 L13.6551724,9.01973265 C13.6551724,8.09093265 12.8904252,7.37142857 11.9506732,7.37142857 L1.70370012,7.37142857 Z" id="Stroke-3"></path>
                            <path d="M8.18259014,14.7428571 L5.4762215,14.7428571 L4.96551724,12.1682937 C4.96551724,11.547926 5.80011232,11.0571429 6.82637313,11.0571429 C7.85506009,11.0571429 8.68965517,11.5412233 8.68965517,12.1615911 L8.18259014,14.7428571 Z" id="Stroke-5"></path>
                            <path d="M2.48275862,7.37142857 L2.48275862,3.57469623 C2.48275862,1.6035941 4.24303448,0 6.20689655,0 C8.17241379,0 9.93103448,1.6035941 9.93103448,3.57469623 L9.93103448,7.37142857" id="Stroke-7"></path>
                        </g>
                    </g>
                </g>
            </g>
        </g>
    </g>
</svg>