<?xml version="1.0" encoding="UTF-8"?>
<svg width="41px" height="38px" viewBox="0 0 41 38" version="1.1" xmlns="http://www.w3.org/2000/svg" xmlns:xlink="http://www.w3.org/1999/xlink">
    <title>Group 10</title>
    <defs>
        <filter id="filter-1">
            <feColorMatrix in="SourceGraphic" type="matrix" values="0 0 0 0 0.000000 0 0 0 0 0.000000 0 0 0 0 0.000000 0 0 0 1.000000 0"></feColorMatrix>
        </filter>
    </defs>
    <g id="Banking" stroke="none" stroke-width="1" fill="none" fill-rule="evenodd" stroke-linecap="round" stroke-linejoin="round">
        <g id="Portal_banking" transform="translate(-126.000000, -624.000000)">
            <g id="Left-menu" transform="translate(0.000000, 132.000000)">
                <g id="Group-10" transform="translate(113.000000, 493.000000)" filter="url(#filter-1)">
                    <g transform="translate(14.000000, 0.000000)">
                        <polygon id="Stroke-1" stroke="#8A94A4" points="39 4.96551724 7.3125 4.96551724 12.4982575 -4.4408921e-16 33.867421 0.00502413212"></polygon>
                        <path d="M7.3125,26.5411669 C12.0066048,25.774853 16.7657154,26.0721003 18.2659813,26.5136759 L27.7277501,29.3023026 C30.4254918,30.0978259 29.2314375,34.2111792 26.5319851,33.415656 L16.5929367,30.4861374" id="Stroke-3" stroke="#8A94A4"></path>
                        <path d="M28.7259118,29.9274574 L35.977593,26.3186789 C38.6079894,25.0085673 40.2622949,29.2200339 37.7732635,30.4603219 L27.9248443,35.3608374 C26.2419291,36.1987209 19.5573903,36.8069213 12.1357347,33.183443 C10.860085,32.5623803 8.69585622,33.3708643 7.3125,33.7567317" id="Stroke-5" stroke="#8A94A4"></path>
                        <polygon id="Stroke-7" stroke="#8A94A4" points="-2.22044605e-15 36 7.3125 36 7.3125 23.5862069 -2.22044605e-15 23.5862069"></polygon>
                        <polyline id="Stroke-9" stroke="#8A94A4" points="10.7759616 8.68965517 7.3125 12.4137931 39 12.4137931 35.5691317 8.68965517"></polyline>
                        <polyline id="Stroke-10" stroke="#8A94A4" points="10.7759616 14.8965517 7.3125 18.6206897 39 18.6206897 35.5691317 14.8965517"></polyline>
                    </g>
                </g>
            </g>
        </g>
    </g>
</svg>