<?xml version="1.0" encoding="UTF-8"?>
<svg width="44px" height="42px" viewBox="0 0 44 42" version="1.1" xmlns="http://www.w3.org/2000/svg" xmlns:xlink="http://www.w3.org/1999/xlink">
    <title>WM icon</title>
    <g id="Banking" stroke="none" stroke-width="1" fill="none" fill-rule="evenodd" stroke-linecap="round" stroke-linejoin="round">
        <g id="Portal_banking" transform="translate(-124.000000, -757.000000)" stroke="#000000">
            <g id="Left-menu" transform="translate(0.000000, 132.000000)">
                <g id="WM-icon-" transform="translate(61.000000, 626.000000)">
                    <path d="M74.8380476,30.3030303 C75.6243333,30.3030303 76.2857143,30.9509175 76.2857143,31.6996733 L76.2857143,31.6996733 L76.2857143,38.6906472 C76.2857143,39.4374633 75.6243333,40 74.8380476,40 L74.8380476,40 L65.4435714,40 C64.6552381,40 64,39.4374633 64,38.6906472 L64,38.6906472 L64,31.6996733 C64,30.9509175 64.6552381,30.3030303 65.4435714,30.3030303 L65.4435714,30.3030303 Z M89.8094762,19.3939394 C90.5957619,19.3939394 91.2571429,20.0196143 91.2571429,20.7426997 L91.2571429,20.7426997 L91.2571429,38.7336639 C91.2571429,39.454876 90.5957619,40 89.8094762,40 L89.8094762,40 L80.415,40 C79.624619,40 78.9714286,39.454876 78.9714286,38.7336639 L78.9714286,38.7336639 L78.9714286,20.7426997 C78.9714286,20.0196143 79.624619,19.3939394 80.415,19.3939394 L80.415,19.3939394 Z M104.554381,0 C105.338619,0 106,0.636190476 106,1.37142857 L106,1.37142857 L106,38.7142857 C106,39.447619 105.338619,40 104.554381,40 L104.554381,40 L95.1599048,40 C94.3695238,40 93.7142857,39.447619 93.7142857,38.7142857 L93.7142857,38.7142857 L93.7142857,1.37142857 C93.7142857,0.636190476 94.3695238,0 95.1599048,0 L95.1599048,0 Z" id="WM-icon"></path>
                </g>
            </g>
        </g>
    </g>
</svg>