<?xml version="1.0" encoding="UTF-8"?>
<svg width="25px" height="16px" viewBox="0 0 25 16" version="1.1" xmlns="http://www.w3.org/2000/svg" xmlns:xlink="http://www.w3.org/1999/xlink">
    <title>Fill 5</title>
    <g id="Banking" stroke="none" stroke-width="1" fill="none" fill-rule="evenodd">
        <g id="Portal_banking" transform="translate(-569.000000, -837.000000)" fill="#8A94A4">
            <g id="Dash" transform="translate(347.000000, 173.000000)">
                <g id="Transaction-history" transform="translate(5.000000, 493.000000)">
                    <g id="Exp-1" transform="translate(41.257942, 150.508314)">
                        <path d="M191.0436,28.2094572 C191.635773,28.2094572 192.116307,27.7288016 192.116307,27.1364785 C192.116307,26.5441555 191.635773,26.0634999 191.0436,26.0634999 C190.451427,26.0634999 189.970894,26.5441555 189.970894,27.1364785 C189.970894,27.7288016 190.451427,28.2094572 191.0436,28.2094572 M193.189013,26.0634999 C193.781186,26.0634999 194.26172,25.5840581 194.26172,24.9917351 C194.26172,24.3981983 193.781186,23.9187564 193.189013,23.9187564 C192.59684,23.9187564 192.116307,24.3981983 192.116307,24.9917351 C192.116307,25.5840581 192.59684,26.0634999 193.189013,26.0634999 M183.535868,28.2094572 C184.720214,28.2094572 185.680068,27.2493598 185.680068,26.0634999 C185.680068,24.8788538 184.720214,23.9187564 183.535868,23.9187564 C182.350309,23.9187564 181.390455,24.8788538 181.390455,26.0634999 C181.390455,27.2493598 182.350309,28.2094572 183.535868,28.2094572 M183.339286,20.6998206 L192.333517,20.6998206 C193.788467,20.4085142 195.27982,21.1574144 195.898689,22.545975 L199.570646,30.7778087 C200.125201,32.0207161 199.838822,33.4760344 198.855913,34.4154975 L198.380233,34.8718776 C198.357177,34.8937256 198.335335,34.913146 198.312279,34.9337802 C197.147348,35.978842 195.356268,35.880526 194.310258,34.7153004 L191.365169,31.428393 L184.462958,31.428393 L181.516656,34.7153004 C180.471859,35.880526 178.680779,35.978842 177.515849,34.9337802 C177.492793,34.913146 177.469737,34.8937256 177.447895,34.8718776 L176.947946,34.3936496 C175.975957,33.4638966 175.684725,32.0304263 176.213797,30.7960154 L179.740138,22.5836021 C180.349299,21.1659108 181.863708,20.3963764 183.339286,20.6998206" id="Fill-5"></path>
                    </g>
                </g>
            </g>
        </g>
    </g>
</svg>