<?xml version="1.0" encoding="UTF-8"?>
<svg width="28px" height="28px" viewBox="0 0 28 28" version="1.1" xmlns="http://www.w3.org/2000/svg" xmlns:xlink="http://www.w3.org/1999/xlink">
    <title>Icon</title>
    <defs>
        <polygon id="path-1" points="0 0.301847597 21.0824533 0.301847597 21.0824533 18.1405373 0 18.1405373"></polygon>
    </defs>
    <g id="Banking" stroke="none" stroke-width="1" fill="none" fill-rule="evenodd">
        <g id="Portal_banking" transform="translate(-569.000000, -902.000000)">
            <g id="Dash" transform="translate(347.000000, 173.000000)">
                <g id="Transaction-history" transform="translate(5.000000, 493.000000)">
                    <g id="Group-19" transform="translate(43.684879, 236.686461)">
                        <g id="Icon" transform="translate(173.526048, 0.000000)">
                            <polygon id="Fill-1" fill-opacity="0" fill="#000000" points="0 26.7030879 26.6963151 26.7030879 26.6963151 0 0 0"></polygon>
                            <path d="M17.2004358,1.55155211 L25.3859368,8.97911871 C25.737096,9.29852872 25.7637923,9.8428609 25.4444633,10.1941092 C25.4290616,10.213623 25.4105795,10.2300557 25.3931242,10.2475154 L17.2076233,17.8301653 C16.8585176,18.1526564 16.3153503,18.1321156 15.9919142,17.7839484 C15.8450844,17.6237299 15.7639687,17.4152404 15.7639687,17.1985346 L15.7639687,2.18831805 C15.7639687,1.71382472 16.1479849,1.32868403 16.6233847,1.32868403 C16.8369552,1.32868403 17.0423115,1.40776625 17.2004358,1.55155211" id="Fill-3" fill-opacity="0.260380245" fill="#8A94A4"></path>
                            <g id="Group-7" transform="translate(0.000000, 1.027042)">
                                <mask id="mask-2" fill="white">
                                    <use xlink:href="#path-1"></use>
                                </mask>
                                <g id="Clip-6"></g>
                                <path d="M0.0058526537,16.1809415 C0.0058526537,15.2401712 -0.195396491,11.528442 2.73093036,8.58391301 C4.70132377,6.60069521 7.65023981,6.25766324 11.1772338,6.10052584 L11.1772338,1.16148162 C11.1772338,0.686988288 11.5622768,0.301847597 12.0376765,0.301847597 C12.251247,0.301847597 12.4566033,0.380929819 12.6147276,0.524715677 L20.8002286,7.95228228 C21.1524146,8.27169229 21.1780841,8.81602447 20.8597819,9.16727278 C20.8423266,9.18575953 20.8248713,9.20321924 20.807416,9.22067895 L12.6208883,16.8023018 C12.2728095,17.12582 11.7286153,17.1042521 11.4072328,16.757112 C11.2593763,16.5968935 11.1772338,16.388404 11.1772338,16.1716981 L11.1772338,11.260384 C8.93782362,11.3230336 7.34323219,11.4647654 5.8944437,11.9248801 C3.808024,12.5893762 2.19597727,14.4729709 1.05624998,17.5766914 C0.932009432,17.9145881 0.610626869,18.1405373 0.249199834,18.1405373 L-0.000308034405,18.1405373 C-0.000308034405,17.5746373 0.0058526537,16.6790568 0.0058526537,16.1809415" id="Fill-5" fill="#8A94A4" mask="url(#mask-2)"></path>
                            </g>
                            <path d="M26.6951857,20.2950657 C26.6951857,16.7569066 23.8273853,13.8883787 20.2890968,13.8883787 C16.7508083,13.8883787 13.883008,16.7569066 13.883008,20.2950657 C13.883008,23.8342519 16.7508083,26.7027798 20.2890968,26.7027798 C23.8273853,26.7027798 26.6951857,23.8342519 26.6951857,20.2950657" id="Fill-8" fill="#8A94A4"></path>
                            <path d="M21.9854423,20.0834951 C21.7954877,19.9417633 21.5860243,19.8277617 21.3570521,19.7425172 C21.1260263,19.6572727 20.9042415,19.5792176 20.6916978,19.5073246 C20.544868,19.4611077 20.4124133,19.4148909 20.2943334,19.3707281 C20.1752268,19.3265653 20.0735754,19.2772673 19.9883526,19.2238611 C19.9031297,19.1704549 19.8374157,19.1098594 19.7932641,19.0379665 C19.7480857,18.9671006 19.7265233,18.878775 19.7265233,18.7729897 C19.7265233,18.6487177 19.7542464,18.5470405 19.8107194,18.4669312 C19.8671924,18.387849 19.9359867,18.3221183 20.019156,18.2717933 C20.1012985,18.2224953 20.1947356,18.1875759 20.2974137,18.1701162 C20.4011187,18.1526564 20.5037968,18.1434131 20.6033946,18.1434131 C20.798483,18.1434131 21.000759,18.191684 21.2102224,18.289253 C21.4196858,18.387849 21.5891047,18.5193104 21.7195059,18.6836371 L22.6857072,17.6658386 C22.4074494,17.4111322 22.0850401,17.2190754 21.714372,17.0896681 C21.4012037,16.9787476 21.0941961,16.9253414 20.7902688,16.9089088 L20.7902688,16.3327383 C20.7902688,16.0749508 20.5818322,15.8664613 20.3241101,15.8664613 C20.0674147,15.8664613 19.8589781,16.0749508 19.8589781,16.3327383 L19.8589781,16.9849099 C19.8240675,16.9931262 19.7881302,16.9962073 19.7532196,17.0054507 C19.4636673,17.0783707 19.2038916,17.1954534 18.9738926,17.3546449 C18.7438936,17.5148635 18.5570194,17.7182177 18.4153235,17.9657348 C18.2746545,18.214279 18.2027798,18.5131481 18.2027798,18.8613153 C18.2027798,19.1447789 18.2489849,19.3851067 18.3403685,19.5833257 C18.431752,19.7805178 18.5529122,19.9489526 18.7038491,20.0886303 C18.8537592,20.227281 19.0252316,20.3402556 19.2182665,20.4296082 C19.4092479,20.5179338 19.6063899,20.5949619 19.8066123,20.6596656 C20.0129953,20.7243692 20.197816,20.7859917 20.3600474,20.8404249 C20.5222789,20.8969122 20.657814,20.9595618 20.7666528,21.0273466 C20.8765184,21.0951313 20.9607145,21.1711324 21.0202678,21.2532958 C21.0787944,21.3364862 21.108571,21.4361092 21.108571,21.554219 C21.108571,21.6784911 21.084955,21.7842764 21.0377231,21.873629 C20.9904912,21.9619546 20.9268307,22.0328205 20.8477685,22.0862267 C20.7666528,22.1396329 20.6752693,22.1776334 20.568484,22.2012554 C20.4627255,22.2248773 20.3528599,22.2372018 20.2409408,22.2372018 C19.9924597,22.2372018 19.7429518,22.1724982 19.4913904,22.0461721 C19.2408557,21.9188189 19.0385798,21.7616815 18.8845626,21.5716787 L17.8937186,22.5822879 C18.1709496,22.8719137 18.5190284,23.0947818 18.9379552,23.2508921 C19.2367486,23.3618127 19.5437562,23.4326785 19.8589781,23.4645168 L19.8589781,24.2584202 C19.8589781,24.5162077 20.0674147,24.7257242 20.3241101,24.7257242 C20.5818322,24.7257242 20.7902688,24.5162077 20.7902688,24.2584202 L20.7902688,23.4347326 C20.9062951,23.4141918 21.0223214,23.394678 21.1352673,23.3607856 C21.4237929,23.2786223 21.681515,23.1522961 21.9053533,22.9807801 C22.1302185,22.8092642 22.3078516,22.5925583 22.4413332,22.3296356 C22.573788,22.0667129 22.6415556,21.7555192 22.6415556,21.3940005 C22.6415556,21.0817798 22.5789219,20.8209111 22.4546814,20.6113946 C22.3304408,20.4018781 22.1743701,20.2262539 21.9854423,20.0834951" id="Fill-10" fill="#FFFFFF"></path>
                        </g>
                    </g>
                </g>
            </g>
        </g>
    </g>
</svg>