<?xml version="1.0" encoding="UTF-8"?>
<svg width="24px" height="24px" viewBox="0 0 24 24" version="1.1" xmlns="http://www.w3.org/2000/svg" xmlns:xlink="http://www.w3.org/1999/xlink">
    <title>Icon</title>
    <defs>
        <polygon id="path-1" points="0 0.553661538 23.9995385 0.553661538 23.9995385 19.7545846 0 19.7545846"></polygon>
    </defs>
    <g id="Banking" stroke="none" stroke-width="1" fill="none" fill-rule="evenodd">
        <g id="Portal_banking" transform="translate(-569.000000, -978.000000)">
            <g id="Dash" transform="translate(347.000000, 173.000000)">
                <g id="Transaction-history" transform="translate(5.000000, 493.000000)">
                    <g id="Icon" transform="translate(217.000000, 312.000000)">
                        <polygon id="Fill-1" fill-opacity="0" fill="#000000" points="0 24 24 24 24 0 0 0"></polygon>
                        <g id="Group-5" transform="translate(0.000000, 1.846154)">
                            <mask id="mask-2" fill="white">
                                <use xlink:href="#path-1"></use>
                            </mask>
                            <g id="Clip-4"></g>
                            <path d="M1.20046154,17.3536615 L22.7995385,17.3536615 C23.4623077,17.3536615 23.9995385,17.8908923 23.9995385,18.5536615 C23.9995385,19.2173538 23.4623077,19.7545846 22.7995385,19.7545846 L1.20046154,19.7545846 C0.536769231,19.7545846 -0.000461538462,19.2173538 -0.000461538462,18.5536615 C-0.000461538462,17.8908923 0.536769231,17.3536615 1.20046154,17.3536615 M11.9995385,5.35366154 C10.6749231,5.35366154 9.60046154,4.2792 9.60046154,2.95366154 C9.60046154,1.62812308 10.6749231,0.553661538 11.9995385,0.553661538 C13.326,0.553661538 14.4004615,1.62812308 14.4004615,2.95366154 C14.4004615,4.2792 13.326,5.35366154 11.9995385,5.35366154" id="Fill-3" fill="#8A94A4" mask="url(#mask-2)"></path>
                        </g>
                        <path d="M22.7999077,16.8001846 C22.7999077,10.8352615 17.9648308,6.00018462 11.9999077,6.00018462 C6.03590769,6.00018462 1.20083077,10.8352615 1.20083077,16.8001846 L22.7999077,16.8001846 Z" id="Fill-6" fill="#8A94A4"></path>
                    </g>
                </g>
            </g>
        </g>
    </g>
</svg>