<?xml version="1.0" encoding="UTF-8"?>
<svg width="24px" height="24px" viewBox="0 0 24 24" version="1.1" xmlns="http://www.w3.org/2000/svg" xmlns:xlink="http://www.w3.org/1999/xlink">
    <title>Icon</title>
    <defs>
        <polygon id="path-1" points="9.23076923e-05 0.368314286 20.4646154 0.368314286 20.4646154 13.7140286 9.23076923e-05 13.7140286"></polygon>
    </defs>
    <g id="Banking" stroke="none" stroke-width="1" fill="none" fill-rule="evenodd">
        <g id="Portal_banking" transform="translate(-569.000000, -1049.000000)">
            <g id="Dash" transform="translate(347.000000, 173.000000)">
                <g id="Transaction-history" transform="translate(5.000000, 493.000000)">
                    <g id="Icon" transform="translate(217.000000, 383.000000)">
                        <rect id="Rectangle" x="0" y="0" width="24" height="24"></rect>
                        <path d="M6.96553846,0 C5.83753846,0 4.92369231,0.913846154 4.92369231,2.04184615 L4.92369231,14.3169231 L13.5949174,14.3169231 L13.5949174,0 L6.96553846,0 Z M17.1904615,0 L13.6107692,0 L13.6107692,14.3169231 L17.7738462,14.3169231 C16.8590769,14.1110769 16.1741538,13.2913846 16.1741538,12.3147692 C16.1741538,11.1867692 17.088,10.2729231 18.216,10.2729231 C18.5861538,10.2729231 18.9406154,10.3744615 19.2406154,10.548 L19.2406154,2.04184615 C19.2406154,0.913846154 18.3258462,0 17.1904615,0 L17.1904615,0 Z M19.2406154,14.3169231 L19.2406154,14.088 C19.0587692,14.1904615 18.8621538,14.2698462 18.6563077,14.3169231 L19.2406154,14.3169231 Z" id="Fill-1" fill-opacity="0.3" fill="#7D90AA"></path>
                        <path d="M14.9234769,4.26470769 L12.6204,1.96163077 C12.3213231,1.66163077 11.8348615,1.66163077 11.5348615,1.96163077 L9.23178462,4.26470769 C8.93270769,4.56378462 8.93270769,5.05024615 9.23178462,5.35024615 C9.53178462,5.65024615 10.0182462,5.65024615 10.3182462,5.35024615 L11.3105538,4.35793846 L11.3105538,7.80193846 C11.3105538,8.22563077 11.6539385,8.56993846 12.0776308,8.56993846 C12.5022462,8.56993846 12.8456308,8.22563077 12.8456308,7.80193846 L12.8456308,4.35793846 L13.8379385,5.35024615 C14.1370154,5.65024615 14.6244,5.65024615 14.9234769,5.35024615 C15.2234769,5.05024615 15.2234769,4.56378462 14.9234769,4.26470769" id="Fill-3" fill="#8A94A4"></path>
                        <g id="Group-7" transform="translate(1.846154, 9.230769)">
                            <mask id="mask-2" fill="white">
                                <use xlink:href="#path-1"></use>
                            </mask>
                            <g id="Clip-6"></g>
                            <path d="M16.8093231,8.72545714 C15.8031692,8.72545714 14.9908615,7.97117143 14.9908615,7.03688571 C14.9908615,6.1026 15.8031692,5.34917143 16.8093231,5.34917143 C17.8154769,5.34917143 18.6277846,6.1026 18.6277846,7.03688571 C18.6277846,7.97117143 17.8154769,8.72545714 16.8093231,8.72545714 M18.4154769,0.368314286 L2.04932308,0.368314286 C0.913938462,0.368314286 9.23076923e-05,1.11402857 9.23076923e-05,2.03974286 L9.23076923e-05,12.0520286 C9.23076923e-05,12.9683143 0.913938462,13.7140286 2.04932308,13.7140286 L18.4154769,13.7140286 C19.5508615,13.7140286 20.4647077,12.9683143 20.4647077,12.0520286 L20.4647077,2.03974286 C20.4647077,1.11402857 19.5508615,0.368314286 18.4154769,0.368314286" id="Fill-5" fill="#8A94A4" mask="url(#mask-2)"></path>
                        </g>
                    </g>
                </g>
            </g>
        </g>
    </g>
</svg>