<?xml version="1.0" encoding="UTF-8"?>
<svg width="26px" height="26px" viewBox="0 0 26 26" version="1.1" xmlns="http://www.w3.org/2000/svg" xmlns:xlink="http://www.w3.org/1999/xlink">
    <title>Icon</title>
    <g id="Banking" stroke="none" stroke-width="1" fill="none" fill-rule="evenodd">
        <g id="Portal_banking" transform="translate(-570.000000, -1118.000000)">
            <g id="Dash" transform="translate(347.000000, 173.000000)">
                <g id="Transaction-history" transform="translate(5.000000, 493.000000)">
                    <g id="Group-22" transform="translate(47.898348, 452.738717)">
                        <g id="Icon" transform="translate(170.526048, 0.000000)">
                            <polygon id="Fill-1" points="0 24.2755344 24.2693774 24.2755344 24.2693774 0 0 0"></polygon>
                            <path d="M18.9745273,12.0339893 L18.1809187,16.7968492 C18.1809187,16.8029181 18.1797052,16.8077732 18.1784917,16.813842 C18.0656391,17.4316544 17.4734663,17.8419109 16.8545972,17.7290297 L3.91901906,15.3767304 C3.49187802,15.2990487 3.14725286,14.9871081 3.02711944,14.5695689 L0.950874206,7.30147387 C0.922964422,7.19951663 0.907189327,7.09391805 0.907189327,6.98831948 C0.907189327,6.35836936 1.41684625,5.84979691 2.04542313,5.84979691 L17.6639809,5.84979691 L18.3617255,2.85783729 C18.5037014,2.24973515 19.046122,1.82127197 19.6686315,1.82127197 L22.0191207,1.82127197 C22.7605502,1.82127197 23.3612173,2.42209145 23.3612173,3.16370903 C23.3612173,3.9053266 22.7605502,4.50735986 22.0191207,4.50735986 L20.7340572,4.50735986 L18.9745273,12.0339893 Z" id="Fill-3" fill="#8A94A4"></path>
                            <path d="M15.9657313,22.4553549 C15.0228659,22.4553549 14.2583806,21.6906755 14.2583806,20.747571 C14.2583806,19.8044665 15.0228659,19.041001 15.9657313,19.041001 C16.9073831,19.041001 17.6718685,19.8044665 17.6718685,20.747571 C17.6718685,21.6906755 16.9073831,22.4553549 15.9657313,22.4553549 M5.72526747,22.4553549 C4.78118869,22.4553549 4.0167033,21.6906755 4.0167033,20.747571 C4.0167033,19.8044665 4.78118869,19.041001 5.72526747,19.041001 C6.66691931,19.041001 7.4314047,19.8044665 7.4314047,20.747571 C7.4314047,21.6906755 6.66691931,22.4553549 5.72526747,22.4553549" id="Fill-5" fill="#7D90AA"></path>
                        </g>
                    </g>
                </g>
            </g>
        </g>
    </g>
</svg>