<?xml version="1.0" encoding="UTF-8"?>
<svg width="54px" height="50px" viewBox="0 0 54 50" version="1.1" xmlns="http://www.w3.org/2000/svg" xmlns:xlink="http://www.w3.org/1999/xlink">
    <title>Banking icon</title>
    <g id="Banking" stroke="none" stroke-width="1" fill="none" fill-rule="evenodd" stroke-linejoin="round">
        <g id="Portal_banking" transform="translate(-120.000000, -338.000000)" stroke="#000000">
            <g id="Left-menu" transform="translate(0.000000, 132.000000)">
                <g id="Banking-icon-2" transform="translate(111.000000, 207.000000)">
                    <path d="M53.5348837,41.2307692 L46.2790698,41.2307692 M53.5348837,15.3846154 L46.2790698,15.3846154 M19.6744186,40.6153846 L14.8372093,40.6153846 L14.8372093,44.3076923 M13.627907,12.3076923 L13.627907,16 L19.6744186,16 M52.7790698,16 L58.372093,16 L58.372093,12.8 L36,0 L13.627907,12.8 L58.372093,12.8 M32.9767442,15.3846154 L25.7209302,15.3846154 M45.6744186,40.6153846 L45.6744186,16 M52.9302326,16 L52.9302326,40.6153846 M32.372093,16 L32.372093,40.6153846 M19.0697674,16 L19.0697674,40.6153846 M39.0232558,15.3846154 L46.2790698,15.3846154 M31.7674419,15.3846154 L39.0232558,15.3846154 M57.1627907,44.3076923 L57.1627907,40.6153846 L52.3255814,40.6153846 M57.1627907,43.6923077 L13.627907,43.6923077 M39.0232558,41.2307692 L46.2790698,41.2307692 M14.5217391,44.3076923 L10,44.3076923 L10,48 L62,48 L62,44.3076923 L57.4782609,44.3076923 M18.4651163,15.3846154 L25.7209302,15.3846154 M39.627907,40.6153846 L39.627907,16 M25.7209302,41.2307692 L18.4651163,41.2307692 M26.3255814,40.6153846 L26.3255814,16 M39.0232558,41.2307692 L31.7674419,41.2307692 M25.7209302,41.2307692 L32.9767442,41.2307692" id="Banking-icon"></path>
                </g>
            </g>
        </g>
    </g>
</svg>